<svg id="Layer_1" enable-background="new 0 0 512 512" height="512" viewBox="0 0 512 512" width="512" xmlns="http://www.w3.org/2000/svg"><g><g fill="#e8f3ff"><path d="m477.472 99.753c0-4.266 3.461-7.726 7.726-7.726 4.265 0 7.726 3.461 7.726 7.726 0 4.265-3.462 7.726-7.726 7.726-4.266 0-7.726-3.462-7.726-7.726zm0-39.147c0-4.276 3.461-7.726 7.726-7.726 4.265 0 7.726 3.451 7.726 7.726 0 4.265-3.462 7.726-7.726 7.726-4.266 0-7.726-3.462-7.726-7.726zm0-39.147c0-4.276 3.461-7.726 7.726-7.726 4.265 0 7.726 3.451 7.726 7.726 0 4.265-3.462 7.726-7.726 7.726-4.266 0-7.726-3.462-7.726-7.726zm-38.024-1.123c0-4.276 3.461-7.726 7.726-7.726 4.265 0 7.726 3.451 7.726 7.726 0 4.265-3.462 7.726-7.726 7.726-4.266 0-7.726-3.461-7.726-7.726zm-39.147 0c0-4.276 3.461-7.726 7.726-7.726 4.265 0 7.726 3.451 7.726 7.726 0 4.265-3.462 7.726-7.726 7.726-4.266 0-7.726-3.461-7.726-7.726zm-39.147 0c0-4.276 3.461-7.726 7.726-7.726 4.265 0 7.726 3.451 7.726 7.726 0 4.265-3.462 7.726-7.726 7.726-4.265 0-7.726-3.461-7.726-7.726zm-39.147 0c0-4.276 3.461-7.726 7.726-7.726 4.265 0 7.726 3.451 7.726 7.726 0 4.265-3.462 7.726-7.726 7.726-4.265 0-7.726-3.461-7.726-7.726zm-39.147 0c0-4.276 3.461-7.726 7.726-7.726 4.265 0 7.726 3.451 7.726 7.726 0 4.265-3.462 7.726-7.726 7.726-4.265 0-7.726-3.461-7.726-7.726z"/><path d="m92.987 447.325c0-4.276 3.462-7.726 7.726-7.726 4.266 0 7.726 3.451 7.726 7.726 0 4.265-3.461 7.716-7.726 7.716-4.264 0-7.726-3.451-7.726-7.716zm-42.238 0c0-4.276 3.462-7.726 7.726-7.726 4.266 0 7.726 3.451 7.726 7.726 0 4.265-3.461 7.716-7.726 7.716-4.264 0-7.726-3.451-7.726-7.716zm-42.237 0c0-4.276 3.462-7.726 7.726-7.726 4.266 0 7.726 3.451 7.726 7.726 0 4.265-3.461 7.716-7.726 7.716-4.264 0-7.726-3.451-7.726-7.716zm-.72-41.516c0-4.276 3.461-7.726 7.726-7.726 4.265 0 7.726 3.451 7.726 7.726 0 4.265-3.462 7.726-7.726 7.726-4.266 0-7.726-3.462-7.726-7.726zm0-42.238c0-4.266 3.461-7.726 7.726-7.726 4.265 0 7.726 3.461 7.726 7.726 0 4.265-3.462 7.726-7.726 7.726-4.266.001-7.726-3.461-7.726-7.726zm0-42.237c0-4.276 3.461-7.726 7.726-7.726 4.265 0 7.726 3.451 7.726 7.726 0 4.265-3.462 7.726-7.726 7.726-4.266 0-7.726-3.461-7.726-7.726zm0-42.237c0-4.276 3.461-7.726 7.726-7.726 4.265 0 7.726 3.451 7.726 7.726 0 4.265-3.462 7.726-7.726 7.726-4.266 0-7.726-3.462-7.726-7.726z"/></g><g><g><path d="m479.017 457.872c45.808-65.854 36.173-143.959 15.23-187.764-4.49-9.393-5.133-19.072-5.133-29.216 0-90.675-73.507-164.183-164.183-164.183s-164.181 73.508-164.181 164.183c0 10.187-.681 19.89-5.184 29.323-28.692 60.114-22.688 132.911 15.394 187.507z" fill="#b36212"/><path d="m148.206 512c0-97.496 79.036-176.532 176.532-176.532s176.532 79.036 176.532 176.532z" fill="#ff8ccc"/><path d="m324.738 335.468c-6.97 0-13.845.405-20.604 1.19 87.788 10.205 155.929 84.816 155.929 175.342h41.207c0-97.496-79.036-176.532-176.532-176.532z" fill="#ff78c2"/><g><path d="m408.103 183.663c-52.517 112.103-170.98 91.864-197.015 86.817 4.613 58.752 53.714 105 113.65 105 62.982 0 114.039-51.057 114.039-114.039 0-30.07-11.656-57.403-30.674-77.778z" fill="#ffdbd3"/></g><g fill="#ffd1c7"><path d="m237.242 274.216c-11.672-1.042-20.839-2.705-26.154-3.735.121 1.547.274 3.086.457 4.615 7.977.19 16.635-.018 25.697-.88z"/><path d="m408.103 183.663c-5.85 12.487-12.518 23.333-19.786 32.74 5.953 13.814 9.253 29.038 9.253 45.037 0 55.947-40.288 102.484-93.435 112.182 6.682 1.22 13.568 1.857 20.603 1.857 62.982 0 114.039-51.058 114.039-114.039 0-30.069-11.656-57.402-30.674-77.777z"/></g></g><g><g><g><path d="m202.268 242.304h-25.669v36.075l-49.076-36.075h-73.532 6.594c-33.299 0-60.293-26.974-60.293-60.248v-121.808c0-33.274 26.994-60.248 60.293-60.248h135.089c33.299 0 60.293 26.974 60.293 60.248v121.807c0 32.837-27.432 60.248-60.293 60.248 2.198.001 4.396.001 6.594.001z" fill="#a6f5cf"/></g></g><path d="m195.674 0h-41.207c33.299 0 60.293 26.974 60.293 60.248v121.807c0 32.837-27.432 60.248-60.293 60.248h-26.337l7.263 5.784 41.207 30.291v-36.075h19.075c32.862 0 60.293-27.411 60.293-60.248v-121.807c-.001-33.274-26.995-60.248-60.294-60.248z" fill="#8aedbd"/><g><path d="m81.081 184.733c-11.347 0-20.545-9.198-20.545-20.545v-47.38c0-11.347 9.198-20.545 20.545-20.545 11.347 0 20.545 9.198 20.545 20.545v47.38c0 11.347-9.199 20.545-20.545 20.545z" fill="#ffd54d"/><path d="m195.368 114.351.045-.175c1.589-6.207-3.114-12.24-9.521-12.214-2.381.01-4.92.017-7.448.02-10.813.011-27.902.023-35.277.023v-34.539c0-8.711-12.023-11.832-16.308-4.217l-23.115 47.261c-1.458 2.981-2.216 6.257-2.216 9.576v36.239c0 6.121 2.574 11.96 7.093 16.089 5.736 5.241 13.246 8.15 21.04 8.15 15.487 0 29.349-.062 41.139-.02 4.484.016 8.393-3.015 9.505-7.359l.029-.115c1.584-6.19 13.925-54.388 15.034-58.719z" fill="#fff"/></g></g></g></g></svg>