<svg id="Capa_1" enable-background="new 0 0 512.005 512.005" height="512" viewBox="0 0 512.005 512.005" width="512" xmlns="http://www.w3.org/2000/svg"><g><g><path d="m491.392 164.931c-3.057-6.167-5.943-11.991-8.183-17.693-2.349-5.977-4.261-12.477-6.285-19.36-4.731-16.08-10.092-34.306-22.741-48.71-11.762-13.393-27.466-20.734-42.652-27.833-7.24-3.384-14.078-6.581-20.25-10.309-5.891-3.559-11.771-8.116-17.997-12.941-12.508-9.693-26.686-20.679-44.31-25.431-16.324-4.402-32.784-2.424-48.7-.511-8.49 1.02-16.79 1.984-24.551 1.984-.139 0 .14-.006 0-.006l-4.14 140.188 4 158.625h222.587c1.588-5.329 3.177-10.41 5.04-15.152 2.239-5.702 5.126-11.527 8.183-17.693 7.6-15.333 16.213-32.712 16.213-52.579-.002-19.867-8.615-37.246-16.214-52.579z" fill="#392e6e"/><path d="m231.731 2.143c-15.917-1.913-32.378-3.891-48.702.512-17.623 4.752-31.8 15.738-44.308 25.43-6.226 4.824-12.105 9.381-17.996 12.94-6.172 3.728-13.01 6.925-20.25 10.309-15.186 7.099-30.891 14.44-42.653 27.833-12.649 14.404-18.011 32.63-22.741 48.71-2.024 6.882-3.936 13.383-6.285 19.36-2.239 5.702-5.126 11.527-8.183 17.693-7.599 15.334-16.213 32.713-16.213 52.58s8.613 37.246 16.213 52.579c3.057 6.167 5.943 11.991 8.183 17.693 1.862 4.741 3.452 9.823 5.039 15.152h221.747l.14-298.813c-7.631-.034-15.653-.976-23.991-1.978z" fill="#54469b"/></g><g><path d="m44.397 286.526c-24.518 0-44.395 19.876-44.395 44.395 0 24.519 19.876 44.395 44.395 44.395h44.395v-88.789h-44.395z" fill="#c97840"/><path d="m467.608 286.526h-44.395v88.789h44.395c24.518 0 44.395-19.876 44.395-44.395-.001-24.518-19.877-44.394-44.395-44.394z" fill="#ae632c"/></g><g><path d="m256.002 271.526-10.667 112.479 10.667 128h.001c103.355 0 187.44-84.085 187.44-187.441v-53.038z" fill="#c97840"/><path d="m68.599 271.526-.037 53.038c0 103.355 84.086 187.44 187.441 187.441v-240.479z" fill="#e38748"/></g><g><g><path d="m256.002 213.338-10 46.048 10 44.945c13.659 0 26.759 5.426 36.418 15.085 17.66 17.66 41.613 27.582 66.588 27.582 38.472 0 69.66-31.188 69.66-69.66v-64z" fill="#9ccefd"/><path d="m83.335 213.338v64c0 38.472 31.188 69.66 69.66 69.66 24.975 0 48.928-9.922 66.588-27.582 9.659-9.659 22.759-15.085 36.418-15.085v-90.994h-172.666z" fill="#bedffe"/></g><g><path d="m256.002 198.338-10.667 15 10.667 15h157.667v49c0 30.14-24.521 54.66-54.66 54.66-21.147 0-41.028-8.235-55.981-23.188-12.561-12.561-29.262-19.478-47.025-19.478l-10.667 16.34 10.667 13.66h.001c9.75 0 18.917 3.797 25.812 10.692 20.619 20.619 48.034 31.975 77.194 31.975 46.682 0 84.66-37.979 84.66-84.66v-79h-187.668z" fill="#efe2dd"/><path d="m256.002 289.331c-17.765 0-34.465 6.918-47.024 19.478-14.953 14.953-34.835 23.188-55.981 23.188-30.141 0-54.661-24.521-54.661-54.66v-49h157.667v-30h-187.668v79c0 46.682 37.979 84.66 84.661 84.66 29.16 0 56.575-11.355 77.195-31.975 6.893-6.894 16.06-10.691 25.811-10.691z" fill="#ffffe8"/></g></g><g><path d="m308.062 379.628-25.969-15.022c-5.375 9.293-15.373 15.065-26.09 15.066l-10.667 15 10.667 15c21.39-.001 41.338-11.513 52.059-30.044z" fill="#efe2dd"/><path d="m256.002 379.671c-10.717 0-20.715-5.773-26.09-15.066l-25.969 15.022c10.721 18.532 30.668 30.044 52.059 30.044z" fill="#ffffe8"/></g><path d="m155.669 266.671h30v30h-30z" fill="#373c41"/><path d="m326.336 266.671h30v30h-30z" fill="#292d31"/></g></svg>