<svg id="Capa_1" enable-background="new 0 0 497 497" height="512" viewBox="0 0 497 497" width="512" xmlns="http://www.w3.org/2000/svg"><g><g><g fill="#ffcf5d"><path d="m98.765 155.667h-74.47v-88.167c0-4.142 3.358-7.5 7.5-7.5h59.47c4.142 0 7.5 3.358 7.5 7.5z"/><path d="m203.235 155.667h-74.47v-88.167c0-4.142 3.358-7.5 7.5-7.5h59.47c4.142 0 7.5 3.358 7.5 7.5z"/><path d="m307.705 155.667h-74.47v-88.167c0-4.142 3.358-7.5 7.5-7.5h59.47c4.142 0 7.5 3.358 7.5 7.5z"/></g><path d="m91.265 60h-22.5v65.667h-44.47v30h74.47v-88.167c0-4.142-3.358-7.5-7.5-7.5z" fill="#ffb545"/><path d="m195.735 60h-22.5v65.667h-44.47v30h74.47v-88.167c0-4.142-3.358-7.5-7.5-7.5z" fill="#ffb545"/><path d="m300.205 60h-22.5v65.667h-44.47v30h74.47v-88.167c0-4.142-3.358-7.5-7.5-7.5z" fill="#ffb545"/></g><g fill="#95d6a4"><path d="m378.955 90v-22.5c0-4.142-3.358-7.5-7.5-7.5h-15c-4.142 0-7.5 3.358-7.5 7.5v22.5c-6.213 0-11.25 5.037-11.25 11.25v54.417h52.5v-54.417c0-6.214-5.037-11.25-11.25-11.25z"/><path d="m461.455 90v-22.5c0-4.142-3.358-7.5-7.5-7.5h-15c-4.142 0-7.5 3.358-7.5 7.5v22.5c-6.213 0-11.25 5.037-11.25 11.25v54.417h52.5v-54.417c0-6.214-5.037-11.25-11.25-11.25z"/></g><g><path d="m233.501 215.666h-44.47c-8.284 0-15 6.716-15 15 0-8.284-6.716-15-15-15h-44.47c-8.284 0-15 6.716-15 15 0-8.284-6.716-15-15-15h-44.47c-8.284 0-15 6.716-15 15v80.667h223.41v-80.667c0-8.284-6.716-15-15-15z" fill="#5c87bd"/><path d="m233.501 215.666h-15v65.667h-44.47v-50.667c0-8.284-6.716-15-15-15h-15v65.667h-44.47v-50.667c0-8.284-6.716-15-15-15h-15v65.667h-44.47v30h223.41v-80.667c0-8.284-6.716-15-15-15z" fill="#456ea2"/></g><g><path d="m456.909 235.668h-34.469c-8.284 0-15 6.716-15 15 0-8.284-6.716-15-15-15h-34.47c-8.284 0-15 6.716-15 15 0-8.284-6.716-15-15-15h-34.469c-8.284 0-15 6.716-15 15v60.666h193.408v-60.666c0-8.285-6.716-15-15-15z" fill="#e9e3d5"/><path d="m456.909 235.668h-15v45.666h-34.469v-30.666c0-8.284-6.716-15-15-15h-15v45.666h-34.47v-30.666c0-8.284-6.716-15-15-15h-15v45.666h-34.469v30h193.408v-60.666c0-8.285-6.716-15-15-15z" fill="#d3cdbf"/></g><g><path d="m342.97 404.167v-17.833c0-8.284-6.716-15-15-15h-49.47c-8.284 0-15 6.716-15 15 0-8.284-6.716-15-15-15h-49.47c-8.284 0-15 6.716-15 15 0-8.284-6.716-15-15-15h-49.47c-8.284 0-15 6.716-15 15 0-8.284-6.716-15-15-15h-49.47c-8.284 0-15 6.716-15 15v17.833c0 8.284 6.716 15 15 15-8.284 0-15 6.716-15 15v32.833h79.47 79.47 79.47 79.47v-32.833c0-8.284-6.716-15-15-15 8.285 0 15-6.716 15-15z" fill="#8b9ba9"/><path d="m342.97 411.667v-25.333c0-8.284-6.716-15-15-15h-15v17.833h-49.47v-2.833c0-8.284-6.716-15-15-15h-15v17.833h-49.47v-2.833c0-8.284-6.716-15-15-15h-15v17.833h-49.47v-2.833c0-8.284-6.716-15-15-15h-15v17.833h-49.47v15c0 8.284 6.716 15 15 15h34.47v17.833h-49.47v30h317.88v-32.833c0-8.284-6.716-15-15-15h7.5c4.142 0 7.5-3.358 7.5-7.5zm-188.94 25.333h-49.47v-17.833h49.47zm79.47 0h-49.47v-17.833h49.47zm79.47 0h-49.47v-17.833h49.47z" fill="#6c7a88"/></g><path d="m435.205 401.333v-22.5c0-4.142-3.358-7.5-7.5-7.5h-15c-4.142 0-7.5 3.358-7.5 7.5v22.5c-6.213 0-11.25 5.037-11.25 11.25v54.417h52.5v-54.417c0-6.213-5.037-11.25-11.25-11.25z" fill="#95d6a4"/><g fill="#ce795f"><path d="m489.5 0h-482c-4.142 0-7.5 3.358-7.5 7.5v15c0 4.142 3.358 7.5 7.5 7.5h482c4.142 0 7.5-3.358 7.5-7.5v-15c0-4.142-3.358-7.5-7.5-7.5z"/><path d="m489.5 467h-482c-4.142 0-7.5 3.358-7.5 7.5v15c0 4.142 3.358 7.5 7.5 7.5h482c4.142 0 7.5-3.358 7.5-7.5v-15c0-4.142-3.358-7.5-7.5-7.5z"/><path d="m489.5 155.667h-482c-4.142 0-7.5 3.358-7.5 7.5v15c0 4.142 3.358 7.5 7.5 7.5h482c4.142 0 7.5-3.358 7.5-7.5v-15c0-4.142-3.358-7.5-7.5-7.5z"/><path d="m489.5 311.333h-482c-4.142 0-7.5 3.358-7.5 7.5v15c0 4.142 3.358 7.5 7.5 7.5h482c4.142 0 7.5-3.358 7.5-7.5v-15c0-4.142-3.358-7.5-7.5-7.5z"/></g></g></svg>